# xmcd
# 
# Track frame offsets:
#     200
#     23202
#     38035
#     59155
#     79255
#     97792
#     110432
#     127275
#     139997
#     147115
#     169492
#     182785
#     197990
#     209482
#     220275
#     240490
# 
# Disc length: 3338
# 
# Revision: 9
# Processed by: cddbd v1.5.2PL0 Copyright (c) Steve Scherf et al.
# Submitted via: fre:ac v1.0.27
# 
DISCID=fa0d0810
DTITLE=Alan Boubil and Claude-Michel Schoberg / Les Misérables (Disc 1)
DYEAR=1985
DGENRE=Soundtrack
TTITLE0=Work Song / Vaijean Arrested/Vaijean Forgiven
TTITLE1=What Have I Done?
TTITLE2=At The End Of The Day
TTITLE3=I Dreamed A Dream
TTITLE4=Lovely Ladies
TTITLE5=Who Am I?
TTITLE6=Come To Me
TTITLE7=Confrontation
TTITLE8=Castle On A Cloud
TTITLE9=Master Of The House
TTITLE10=Thenardier Waltz Of Treachery
TTITLE11=Stars
TTITLE12=Look Down
TTITLE13=Little People
TTITLE14=Red And Black
TTITLE15=Do You Hear The People Sing?
EXTD= YEAR: 1985
EXTT0=
EXTT1=
EXTT2=
EXTT3=
EXTT4=
EXTT5=
EXTT6=
EXTT7=
EXTT8=
EXTT9=
EXTT10=
EXTT11=
EXTT12=
EXTT13=
EXTT14=
EXTT15=
PLAYORDER=
.
